


<svg width="120" height="120" viewBox="0 0 120 120" fill="none" xmlns="http://www.w3.org/2000/svg">
<g id="logo" >
  <g clip-path="url(#clip0_2_5840)">
    <path d="M12.5581 0V3.83066C11.5028 3.83066 10.6796 3.98157 10.0882 4.28338C9.49679 4.57357 9.24169 5.15977 9.32287 6.04199L9.86206 11.1785C10.0012 12.4786 9.85626 13.5292 9.42722 14.3301C9.00978 15.131 8.36623 15.7464 7.49655 16.1758C6.63848 16.5938 5.62386 16.8897 4.45271 17.0638C5.69343 17.2495 6.74284 17.5514 7.60092 17.9693C8.45899 18.3871 9.08516 18.9907 9.47941 19.7801C9.87366 20.5695 10.0012 21.6258 9.86206 22.9492L9.32287 28.0857C9.24169 28.9679 9.49679 29.5541 10.0882 29.8443C10.6796 30.146 11.5028 30.297 12.5581 30.297V34.1277C9.35765 34.1277 7.1081 33.6401 5.80939 32.6651C4.52229 31.7016 4.00048 30.0475 4.24398 27.7026L4.76579 22.7227C4.85856 21.8406 4.70782 21.1499 4.31357 20.6507C3.93091 20.1516 3.36272 19.8033 2.60901 19.6059C1.85529 19.3971 0.985626 19.2926 0 19.2926V14.8351C0.97403 14.8351 1.8379 14.7364 2.59162 14.5391C3.34533 14.3301 3.91932 13.9761 4.31357 13.477C4.70782 12.9778 4.85856 12.2871 4.76579 11.4049L4.24398 6.45987C3.98889 4.06861 4.51068 2.39706 5.80939 1.4452C7.1081 0.481734 9.35765 0 12.5581 0Z" fill="url(#paint0_linear_2_5840)"/>
    <path d="M27.633 4.50977C30.5087 4.50977 32.6771 5.62414 34.1381 7.85288C35.6108 10.07 36.3471 13.1636 36.3471 17.1335C36.3471 21.115 35.6108 24.2318 34.1381 26.4838C32.6771 28.7242 30.5087 29.8443 27.633 29.8443C24.7342 29.8443 22.5541 28.7242 21.0931 26.4838C19.6436 24.2318 18.9189 21.115 18.9189 17.1335C18.9189 13.1636 19.6436 10.07 21.0931 7.85288C22.5541 5.62414 24.7342 4.50977 27.633 4.50977ZM27.633 8.49713C26.4039 8.49713 25.5052 9.15879 24.937 10.4821C24.3689 11.7938 24.0847 14.0109 24.0847 17.1335C24.0847 18.1551 24.1022 19.0663 24.1369 19.8672C24.1718 20.6566 24.224 21.3589 24.2935 21.9741L30.1724 9.66374C29.8942 9.22264 29.5463 8.92083 29.1289 8.75831C28.7231 8.5842 28.2244 8.49713 27.633 8.49713ZM31.1465 17.1335C31.1465 15.7986 31.1175 14.6726 31.0595 13.7555L25.511 25.2302C25.7662 25.4739 26.0676 25.6422 26.4154 25.7351C26.775 25.8279 27.1808 25.8744 27.633 25.8744C28.4564 25.8744 29.1231 25.5958 29.6333 25.0387C30.1551 24.4815 30.5377 23.5644 30.7812 22.2875C31.0248 20.999 31.1465 19.281 31.1465 17.1335Z" fill="url(#paint1_linear_2_5840)"/>
    <path d="M48.5 4.50977C51.3758 4.50977 53.5442 5.62414 55.0052 7.85288C56.4779 10.07 57.2141 13.1636 57.2141 17.1335C57.2141 21.115 56.4779 24.2318 55.0052 26.4838C53.5442 28.7242 51.3758 29.8443 48.5 29.8443C45.6011 29.8443 43.4212 28.7242 41.9602 26.4838C40.5107 24.2318 39.786 21.115 39.786 17.1335C39.786 13.1636 40.5107 10.07 41.9602 7.85288C43.4212 5.62414 45.6011 4.50977 48.5 4.50977ZM48.5 8.49713C47.271 8.49713 46.3723 9.15879 45.8041 10.4821C45.2359 11.7938 44.9518 14.0109 44.9518 17.1335C44.9518 18.1551 44.9692 19.0663 45.004 19.8672C45.0387 20.6566 45.0909 21.3589 45.1605 21.9741L51.0395 9.66374C50.7611 9.22264 50.4133 8.92083 49.9959 8.75831C49.59 8.5842 49.0914 8.49713 48.5 8.49713ZM52.0135 17.1335C52.0135 15.7986 51.9846 14.6726 51.9266 13.7555L46.3781 25.2302C46.6331 25.4739 46.9347 25.6422 47.2825 25.7351C47.642 25.8279 48.0478 25.8744 48.5 25.8744C49.3233 25.8744 49.99 25.5958 50.5003 25.0387C51.022 24.4815 51.4048 23.5644 51.6482 22.2875C51.8917 20.999 52.0135 19.281 52.0135 17.1335Z" fill="url(#paint2_linear_2_5840)"/>
    <path d="M68.1146 29.8095L62.8966 28.1902L71.889 9.26321H61.2964V5.11914H77.4549V8.84532L68.1146 29.8095Z" fill="url(#paint3_linear_2_5840)"/>
    <path d="M84.4419 0C87.6423 0 89.8861 0.481734 91.1732 1.4452C92.4719 2.40867 92.9995 4.06862 92.756 6.42505L92.2342 11.4049C92.1414 12.2871 92.2921 12.9778 92.6864 13.477C93.0807 13.9761 93.6488 14.3301 94.3909 14.5391C95.1447 14.7364 96.0144 14.8351 97 14.8351V19.2926C96.0259 19.2926 95.1621 19.3971 94.4083 19.6059C93.6547 19.8033 93.0807 20.1516 92.6864 20.6507C92.2921 21.1499 92.1414 21.8406 92.2342 22.7227L92.756 27.6678C93.0227 30.0475 92.5009 31.719 91.1905 32.6824C89.8918 33.646 87.6423 34.1277 84.4419 34.1277V30.297C85.5088 30.297 86.3378 30.146 86.9291 29.8443C87.5206 29.5541 87.7699 28.9679 87.6772 28.0857L87.1379 22.9492C86.9988 21.6374 87.1379 20.5868 87.5553 19.7976C87.9844 18.9965 88.6338 18.3871 89.5035 17.9693C90.373 17.5397 91.3935 17.238 92.5646 17.0638C91.3239 16.8781 90.2688 16.5763 89.3991 16.1584C88.5409 15.7405 87.9149 15.1369 87.5206 14.3476C87.1263 13.5466 86.9988 12.4903 87.1379 11.1785L87.6772 6.04199C87.7699 5.15977 87.5147 4.57357 86.9118 4.28338C86.3204 3.98157 85.4971 3.83066 84.4419 3.83066V0Z" fill="url(#paint4_linear_2_5840)"/>
    <path d="M12.2746 42.1621C13.2417 42.1621 14.0209 42.4024 14.6122 42.883C15.2037 43.3635 15.635 44.0426 15.9064 44.9202C16.1846 45.7977 16.3238 46.839 16.3238 48.0439C16.3238 49.1862 16.1568 50.2065 15.8229 51.1049C15.4889 51.9964 15.0054 52.6999 14.3723 53.2153C13.7391 53.7238 12.9703 53.978 12.0659 53.978C10.9875 53.978 10.1108 53.5914 9.43597 52.8182V57.9061L6.13818 58.2509V42.5278H9.06028L9.20639 43.771C9.65862 43.1929 10.1526 42.782 10.6883 42.5382C11.224 42.2875 11.7528 42.1621 12.2746 42.1621ZM11.2519 44.5964C10.8692 44.5964 10.5318 44.7113 10.2396 44.9411C9.94735 45.1709 9.67948 45.4843 9.43597 45.8813V50.5617C9.66557 50.903 9.9056 51.1537 10.1561 51.3139C10.4135 51.474 10.7161 51.5542 11.064 51.5542C11.6484 51.5542 12.1041 51.2895 12.4312 50.7601C12.7582 50.2238 12.9216 49.3325 12.9216 48.0857C12.9216 47.1663 12.8555 46.456 12.7233 45.9545C12.5912 45.4461 12.3999 45.0943 12.1493 44.8993C11.8989 44.6973 11.5997 44.5964 11.2519 44.5964Z" fill="url(#paint5_linear_2_5840)"/>
    <path d="M27.9881 50.4259C27.9881 50.8437 28.0437 51.1467 28.1551 51.3348C28.2733 51.5228 28.4612 51.6657 28.7186 51.7631L28.0403 53.9362C27.3862 53.8735 26.8332 53.7307 26.3809 53.5078C25.9356 53.278 25.5843 52.9332 25.3269 52.4736C24.9025 52.982 24.3598 53.3615 23.6989 53.6123C23.0379 53.856 22.3631 53.978 21.6743 53.978C20.5332 53.978 19.6218 53.6541 18.94 53.0063C18.2651 52.3517 17.9277 51.5124 17.9277 50.4886C17.9277 49.2837 18.3974 48.3538 19.3366 47.6991C20.2827 47.0445 21.6116 46.7172 23.3231 46.7172H24.8155V46.2992C24.8155 45.164 24.085 44.5964 22.6239 44.5964C22.2692 44.5964 21.8134 44.6486 21.2568 44.7531C20.7002 44.8505 20.1436 44.9932 19.587 45.1813L18.8252 42.9875C19.5419 42.7159 20.2863 42.5103 21.0585 42.3711C21.8377 42.2318 22.5335 42.1621 23.1457 42.1621C24.7946 42.1621 26.0121 42.4999 26.7983 43.1754C27.5915 43.8441 27.9881 44.8122 27.9881 46.0798V50.4259ZM22.8117 51.6169C23.1666 51.6169 23.5389 51.5124 23.9285 51.3034C24.3181 51.0876 24.6137 50.7846 24.8155 50.3946V48.5977H24.0015C23.0831 48.5977 22.4083 48.7404 21.9769 49.0259C21.5456 49.3045 21.3299 49.7155 21.3299 50.2588C21.3299 50.6836 21.4585 51.0179 21.716 51.2616C21.9804 51.4985 22.3457 51.6169 22.8117 51.6169Z" fill="url(#paint6_linear_2_5840)"/>
    <path d="M41.6354 42.5276L37.9411 53.6225H34.0589L30.3226 42.5276H33.8814L36.0417 51.0943L38.2958 42.5276H41.6354Z" fill="url(#paint7_linear_2_5840)"/>
    <path d="M53.0285 50.4259C53.0285 50.8437 53.0841 51.1467 53.1955 51.3348C53.3137 51.5228 53.5016 51.6657 53.759 51.7631L53.0807 53.9362C52.4266 53.8735 51.8736 53.7307 51.4214 53.5078C50.976 53.278 50.6248 52.9332 50.3673 52.4736C49.9429 52.982 49.4002 53.3615 48.7393 53.6123C48.0783 53.856 47.4035 53.978 46.7147 53.978C45.5736 53.978 44.6622 53.6541 43.9804 53.0063C43.3055 52.3517 42.9681 51.5124 42.9681 50.4886C42.9681 49.2837 43.4378 48.3538 44.377 47.6991C45.3232 47.0445 46.6521 46.7172 48.3635 46.7172H49.8559V46.2992C49.8559 45.164 49.1254 44.5964 47.6644 44.5964C47.3096 44.5964 46.8538 44.6486 46.2972 44.7531C45.7406 44.8505 45.184 44.9932 44.6275 45.1813L43.8657 42.9875C44.5823 42.7159 45.3267 42.5103 46.0989 42.3711C46.8782 42.2318 47.5739 42.1621 48.1861 42.1621C49.835 42.1621 51.0525 42.4999 51.8387 43.1754C52.6319 43.8441 53.0285 44.8122 53.0285 46.0798V50.4259ZM47.8521 51.6169C48.207 51.6169 48.5793 51.5124 48.9689 51.3034C49.3585 51.0876 49.6541 50.7846 49.8559 50.3946V48.5977H49.0419C48.1235 48.5977 47.4487 48.7404 47.0173 49.0259C46.586 49.3045 46.3703 49.7155 46.3703 50.2588C46.3703 50.6836 46.4991 51.0179 46.7564 51.2616C47.0208 51.4985 47.3861 51.6169 47.8521 51.6169Z" fill="url(#paint8_linear_2_5840)"/>
    <path d="M56.2189 53.6227V42.5278H59.0993L59.3289 43.8128C59.8229 43.2556 60.3446 42.8412 60.8943 42.5696C61.4439 42.2979 62.0701 42.1621 62.7728 42.1621C63.7189 42.1621 64.4634 42.4511 65.0061 43.0293C65.5487 43.6074 65.82 44.4222 65.82 45.4739V53.6227H62.5223V46.4246C62.5223 45.7421 62.4458 45.2685 62.2927 45.0037C62.1466 44.7322 61.8683 44.5964 61.4577 44.5964C61.1099 44.5964 60.776 44.7077 60.4559 44.9307C60.1428 45.1535 59.8297 45.4634 59.5168 45.8604V53.6227H56.2189Z" fill="url(#paint9_linear_2_5840)"/>
    <path d="M76.9314 42.1621C77.7174 42.1621 78.2985 42.4199 78.6742 42.9353C79.0568 43.4436 79.2481 44.269 79.2481 45.4112V53.6227H76.42V45.7873C76.42 45.3973 76.3817 45.1222 76.3052 44.962C76.2356 44.8017 76.0894 44.7217 75.8668 44.7217C75.693 44.7217 75.512 44.774 75.3241 44.8784C75.1433 44.9759 74.9415 45.164 74.7189 45.4425V53.6227H72.4021V45.7873C72.4021 45.3973 72.3638 45.1222 72.2873 44.962C72.2177 44.8017 72.0716 44.7217 71.8489 44.7217C71.6751 44.7217 71.4941 44.774 71.3062 44.8784C71.1254 44.9759 70.9236 45.164 70.701 45.4425V53.6227H67.8311V42.5278H70.2522L70.4714 43.6038C70.8193 43.1302 71.1707 42.7715 71.5254 42.5278C71.8803 42.284 72.3012 42.1621 72.7882 42.1621C73.2056 42.1621 73.5604 42.27 73.8527 42.486C74.1519 42.695 74.3641 43.0257 74.4893 43.4784C74.8233 43.0884 75.192 42.7715 75.5955 42.5278C75.9991 42.284 76.4443 42.1621 76.9314 42.1621Z" fill="url(#paint10_linear_2_5840)"/>
    <path d="M91.1004 40.7517L91.8728 43.1754C91.4832 43.3287 91.0274 43.4401 90.5057 43.5097C89.9838 43.5794 89.3751 43.6142 88.6794 43.6142C89.3751 43.9137 89.9038 44.2863 90.2656 44.7321C90.6344 45.1708 90.8187 45.7489 90.8187 46.4664C90.8187 47.1837 90.6274 47.8245 90.2448 48.3886C89.862 48.9458 89.3195 49.3846 88.6168 49.705C87.9141 50.0254 87.0826 50.1856 86.1225 50.1856C85.6633 50.1856 85.2354 50.1438 84.8389 50.0602C84.7205 50.1229 84.6302 50.2133 84.5676 50.3318C84.5049 50.4502 84.4736 50.5721 84.4736 50.6975C84.4736 50.8716 84.5431 51.0283 84.6824 51.1675C84.8285 51.3069 85.1659 51.3765 85.6946 51.3765H87.5105C88.3732 51.3765 89.1176 51.5158 89.7438 51.7944C90.3769 52.0729 90.8674 52.4526 91.2153 52.9331C91.5631 53.4137 91.7371 53.964 91.7371 54.5839C91.7371 55.7191 91.2397 56.6141 90.2448 57.2688C89.2498 57.9234 87.7714 58.2509 85.8094 58.2509C84.3901 58.2509 83.2908 58.1046 82.5117 57.812C81.7393 57.5265 81.2002 57.1156 80.8941 56.5792C80.5949 56.0499 80.4453 55.4196 80.4453 54.6882H83.3673C83.3673 55.0087 83.43 55.2699 83.5552 55.4718C83.6874 55.6808 83.9344 55.8341 84.2962 55.9315C84.6649 56.029 85.1972 56.0778 85.8929 56.0778C86.5956 56.0778 87.1313 56.022 87.5 55.9107C87.8688 55.7992 88.1192 55.646 88.2515 55.4509C88.3906 55.2629 88.4602 55.0505 88.4602 54.8136C88.4602 54.4863 88.3314 54.2217 88.0741 54.0197C87.8166 53.8177 87.4097 53.7167 86.853 53.7167H85.0893C83.8926 53.7167 83.0229 53.4973 82.4803 53.0585C81.9376 52.6128 81.6663 52.0938 81.6663 51.5019C81.6663 51.091 81.7741 50.701 81.9898 50.3318C82.2124 49.9627 82.5221 49.6527 82.9187 49.402C82.209 49.0258 81.701 48.5836 81.3949 48.0752C81.0888 47.5598 80.9358 46.9434 80.9358 46.226C80.9358 45.3902 81.148 44.6729 81.5724 44.0739C81.9968 43.4679 82.5811 43.0013 83.3256 42.674C84.077 42.3467 84.9329 42.1829 85.8929 42.1829C86.7208 42.1968 87.441 42.1412 88.0532 42.0158C88.6654 41.8834 89.2151 41.7059 89.7021 41.4829C90.189 41.2531 90.6552 41.0093 91.1004 40.7517ZM85.9764 44.3246C85.4546 44.3246 85.0406 44.4918 84.7345 44.8262C84.4283 45.1535 84.2753 45.6062 84.2753 46.1843C84.2753 46.7971 84.4319 47.2673 84.745 47.5946C85.058 47.9219 85.4686 48.0857 85.9764 48.0857C87.1034 48.0857 87.667 47.4379 87.667 46.1425C87.667 44.9306 87.1034 44.3246 85.9764 44.3246Z" fill="url(#paint11_linear_2_5840)"/>
  </g>
  <defs>
    <linearGradient id="paint0_linear_2_5840" x1="-2.05005" y1="36.7549" x2="99.9719" y2="0.679714" gradientUnits="userSpaceOnUse">
      <stop stop-color="#00C0FD"/>
      <stop offset="1" stop-color="#E70FAA"/>
    </linearGradient>
    <linearGradient id="paint1_linear_2_5840" x1="-2.05004" y1="36.755" x2="99.972" y2="0.679755" gradientUnits="userSpaceOnUse">
      <stop stop-color="#00C0FD"/>
      <stop offset="1" stop-color="#E70FAA"/>
    </linearGradient>
    <linearGradient id="paint2_linear_2_5840" x1="-2.05001" y1="36.755" x2="99.972" y2="0.679757" gradientUnits="userSpaceOnUse">
      <stop stop-color="#00C0FD"/>
      <stop offset="1" stop-color="#E70FAA"/>
    </linearGradient>
    <linearGradient id="paint3_linear_2_5840" x1="-2.05005" y1="36.7549" x2="99.9719" y2="0.679708" gradientUnits="userSpaceOnUse">
      <stop stop-color="#00C0FD"/>
      <stop offset="1" stop-color="#E70FAA"/>
    </linearGradient>
    <linearGradient id="paint4_linear_2_5840" x1="-2.05008" y1="36.7549" x2="99.9719" y2="0.679722" gradientUnits="userSpaceOnUse">
      <stop stop-color="#00C0FD"/>
      <stop offset="1" stop-color="#E70FAA"/>
    </linearGradient>
    <linearGradient id="paint5_linear_2_5840" x1="-0.244359" y1="59.3455" x2="93.6381" y2="39.507" gradientUnits="userSpaceOnUse">
      <stop stop-color="#13B0F5"/>
      <stop offset="1" stop-color="#CA24B4"/>
    </linearGradient>
    <linearGradient id="paint6_linear_2_5840" x1="-0.24451" y1="59.3455" x2="93.638" y2="39.507" gradientUnits="userSpaceOnUse">
      <stop stop-color="#13B0F5"/>
      <stop offset="1" stop-color="#CA24B4"/>
    </linearGradient>
    <linearGradient id="paint7_linear_2_5840" x1="-0.244492" y1="59.3453" x2="93.638" y2="39.5068" gradientUnits="userSpaceOnUse">
      <stop stop-color="#13B0F5"/>
      <stop offset="1" stop-color="#CA24B4"/>
    </linearGradient>
    <linearGradient id="paint8_linear_2_5840" x1="-0.244461" y1="59.3455" x2="93.638" y2="39.507" gradientUnits="userSpaceOnUse">
      <stop stop-color="#13B0F5"/>
      <stop offset="1" stop-color="#CA24B4"/>
    </linearGradient>
    <linearGradient id="paint9_linear_2_5840" x1="-0.244434" y1="59.3455" x2="93.6381" y2="39.507" gradientUnits="userSpaceOnUse">
      <stop stop-color="#13B0F5"/>
      <stop offset="1" stop-color="#CA24B4"/>
    </linearGradient>
    <linearGradient id="paint10_linear_2_5840" x1="-0.244473" y1="59.3455" x2="93.638" y2="39.507" gradientUnits="userSpaceOnUse">
      <stop stop-color="#13B0F5"/>
      <stop offset="1" stop-color="#CA24B4"/>
    </linearGradient>
    <linearGradient id="paint11_linear_2_5840" x1="-0.244413" y1="59.3454" x2="93.6381" y2="39.5069" gradientUnits="userSpaceOnUse">
      <stop stop-color="#13B0F5"/>
      <stop offset="1" stop-color="#CA24B4"/>
    </linearGradient>
    <clipPath id="clip0_2_5840">
      <rect width="97" height="59" fill="white"/>
    </clipPath>
  </defs>
</g>

<g id='htmlIcon'>
	<path d="M22.1325 102.004L13.7063 7.5H106.294L97.8563 101.989L59.9438 112.5L22.1325 102.004Z" fill="#E44F26"/>
	<path d="M60 104.468L90.6375 95.9738L97.845 15.2288H60V104.468Z" fill="#F1662A"/>
	<path d="M60 50.2763H44.6625L43.605 38.4075H60V26.8163H30.9375L31.215 29.9288L34.0613 61.8675H60V50.2763ZM60 80.3775L59.9475 80.3925L47.04 76.9088L46.215 67.665H34.5787L36.2025 85.86L59.9475 92.4525L60 92.4375V80.3775Z" fill="#EBEBEB"/>
	<path d="M59.9587 50.2763V61.8675H74.2312L72.8887 76.9013L59.9587 80.3888V92.4488L83.7225 85.86L83.895 83.9025L86.6175 53.3888L86.9025 50.2763H59.9587ZM59.9587 26.8163V38.4075H87.9562L88.1887 35.805L88.7175 29.9288L88.995 26.8163H59.9587Z" fill="white"/>
</g>

<g id="scc">
	<path d="M22.1325 101.154L13.71 7.4375H106.29L97.8562 101.139L59.9437 111.562L22.1325 101.154Z" fill="#1572B6"/>
	<path d="M60 103.597L90.6375 95.1739L97.845 15.1018H60V103.597Z" fill="#33A9DC"/>
	<path d="M60 49.054H75.3375L76.395 37.2842H60V25.7896H89.0625L88.785 28.8724L85.9387 60.5487H60V49.054Z" fill="white"/>
	<path d="M60.0713 78.9045L60.0188 78.9193L47.1113 75.4609L46.2863 66.2942H34.65L36.2738 84.3413L60.015 90.8788L60.0713 90.864V78.9045Z" fill="#EBEBEB"/>
	<path d="M74.3513 60.0615L72.9563 75.4534L60.03 78.9119V90.8714L83.79 84.3412L83.9663 82.4001L85.98 60.0615H74.3513Z" fill="white"/>
	<path d="M60.0413 25.7896V37.2842H32.0438L31.8113 34.6997L31.2825 28.8724L31.005 25.7896H60.0413ZM60 49.054V60.5487H47.2538L47.0213 57.9642L46.4963 52.1369L46.2188 49.054H60Z" fill="#EBEBEB"/>
</g>

<g id="javascript">
	<path d="M7.5 7.5H112.5V112.5H7.5V7.5Z" fill="#F5DE19"/>
	<path d="M78.0338 89.5312C78.9284 91.3485 80.3183 92.8759 82.0434 93.9375C83.7684 94.9991 85.7584 95.5515 87.7838 95.5313C91.8713 95.5313 94.485 93.4875 94.485 90.6562C94.485 87.2812 91.8 86.0738 87.3 84.105L84.8325 83.0475C77.7075 80.0138 72.9825 76.215 72.9825 68.1825C72.9825 60.7838 78.6075 55.1475 87.4313 55.1475C90.2877 54.9412 93.1416 55.5805 95.637 56.9856C98.1324 58.3907 100.159 60.4994 101.464 63.0488L93.75 67.98C93.2476 66.716 92.3728 65.6345 91.2416 64.879C90.1105 64.1236 88.7764 63.7298 87.4163 63.75C86.8229 63.6906 86.2236 63.7555 85.6567 63.9404C85.0897 64.1254 84.5675 64.4265 84.1234 64.8244C83.6792 65.2224 83.3228 65.7085 83.0769 66.2518C82.831 66.7951 82.7009 67.3837 82.695 67.98C82.695 70.9388 84.5288 72.1388 88.7625 73.98L91.23 75.0375C99.615 78.6338 104.355 82.2975 104.355 90.5363C104.355 99.42 97.3763 104.287 88.005 104.287C84.3537 104.52 80.713 103.691 77.5223 101.901C74.3317 100.11 71.7274 97.4342 70.0238 94.1963L78.0338 89.5312ZM43.1775 90.3863C44.7263 93.135 46.1363 95.46 49.5263 95.46C52.7663 95.46 54.8138 94.1925 54.8138 89.2612V55.71H64.68V89.3925C64.68 99.6075 58.68 104.257 49.9463 104.257C46.8591 104.426 43.7931 103.657 41.1513 102.051C38.5096 100.444 36.4157 98.0761 35.145 95.2575L43.1775 90.3863Z" fill="black"/>
</g>

<g id="react">
	<g clip-path="url(#clip0_2_5870)">
	<path d="M92.9056 32.7028C91.7031 32.2887 90.4904 31.9051 89.2687 31.5524C89.4739 30.7107 89.6628 29.8792 89.8306 29.0624C92.5838 15.6484 90.7839 4.84184 84.6361 1.28381C78.7416 -2.12716 69.1016 1.42955 59.3659 9.93348C58.4064 10.7731 57.4682 11.6369 56.5522 12.524C55.9389 11.9341 55.3149 11.3556 54.6803 10.7889C44.4767 1.69623 34.2493 -2.13602 28.1081 1.43221C22.2189 4.8538 20.475 15.0127 22.9538 27.7254C23.2004 28.9845 23.4788 30.2371 23.7888 31.4819C22.3412 31.8948 20.9442 32.3342 19.6073 32.802C7.64443 36.9882 0.00476074 43.5483 0.00476074 50.353C0.00476074 57.3809 8.20629 64.4301 20.6662 68.7044C21.6763 69.0495 22.6949 69.3693 23.7209 69.6635C23.3877 71.0042 23.0918 72.3541 22.8337 73.7114C20.4706 86.2035 22.316 96.1224 28.1893 99.5223C34.2555 103.033 44.437 99.4248 54.3506 90.7268C55.1545 90.0197 55.9407 89.2925 56.7084 88.546C57.7004 89.5067 58.7189 90.4394 59.7627 91.343C69.366 99.6365 78.8502 102.985 84.7177 99.5763C90.7782 96.055 92.748 85.3995 90.1907 72.4357C89.9893 71.42 89.7634 70.4094 89.5132 69.4048C90.2282 69.1921 90.93 68.9733 91.6141 68.7456C104.567 64.4385 112.995 57.4748 112.995 50.353C112.995 43.5235 105.109 36.9191 92.9056 32.7028ZM90.0963 64.1474C89.4783 64.3525 88.8445 64.5506 88.1984 64.7433C86.7683 60.1996 84.8387 55.3684 82.4769 50.3764C84.7305 45.5036 86.586 40.7341 87.9759 36.2201C89.1319 36.5558 90.2534 36.9098 91.3347 37.2832C101.791 40.8962 108.169 46.2372 108.169 50.353C108.169 54.7367 101.281 60.4277 90.0963 64.1474ZM85.4557 73.3765C86.5865 79.1087 86.7476 84.2916 85.9986 88.3436C85.3259 91.9845 83.9727 94.4116 82.299 95.3839C78.7385 97.4526 71.1235 94.7637 62.911 87.6707C61.9401 86.8305 60.9927 85.9634 60.0699 85.0704C63.2539 81.5757 66.4358 77.5131 69.5412 73.0009C75.0036 72.5145 80.1641 71.7189 84.844 70.6332C85.0694 71.5426 85.2734 72.4574 85.4557 73.3765ZM38.5257 95.0264C35.0469 96.2592 32.2759 96.2947 30.6009 95.3254C27.0369 93.2625 25.5552 85.2981 27.5762 74.6151C27.8165 73.3527 28.0916 72.0973 28.4012 70.8502C33.0294 71.8779 38.1523 72.6168 43.6275 73.0625C46.7542 77.4777 50.0278 81.5358 53.3271 85.0894C52.6259 85.7704 51.9082 86.4339 51.1745 87.0793C46.7904 90.9253 42.3974 93.6541 38.5257 95.0264ZM22.2277 64.1204C16.7181 62.2302 12.168 59.7739 9.04931 57.0934C6.24661 54.6849 4.83202 52.2932 4.83202 50.353C4.83202 46.2235 10.9657 40.9564 21.1962 37.3767C22.4378 36.9426 23.7372 36.5328 25.0856 36.1483C26.4997 40.7642 28.3544 45.5905 30.5926 50.4708C28.3252 55.4233 26.4441 60.3267 25.0163 64.9971C24.0798 64.7278 23.15 64.4355 22.2277 64.1204ZM27.691 26.7947C25.5676 15.9031 26.9777 7.68712 30.5268 5.62504C34.3067 3.42873 42.6653 6.56017 51.4755 14.4116C52.05 14.9247 52.6152 15.4483 53.1708 15.982C49.8879 19.5201 46.6443 23.5481 43.5454 27.9372C38.2313 28.4315 33.1446 29.2254 28.4678 30.289C28.1797 29.1311 27.9206 27.9661 27.691 26.7952V26.7947ZM76.4301 38.874C75.3255 36.9589 74.1799 35.068 72.9941 33.2025C76.5992 33.6601 80.0533 34.2674 83.297 35.0098C82.3233 38.1426 81.1095 41.4176 79.6808 44.7754C78.6365 42.7867 77.5527 40.8192 76.4301 38.874ZM56.5544 19.4443C58.7806 21.8652 61.0104 24.5679 63.2036 27.5004C58.7546 27.2895 54.2982 27.2886 49.8491 27.4977C52.0445 24.5922 54.2932 21.8931 56.5544 19.4443ZM36.5511 38.9072C35.4425 40.8368 34.3789 42.792 33.3613 44.7714C31.956 41.4255 30.7532 38.1355 29.7712 34.9584C32.9949 34.2346 36.4328 33.6428 40.0149 33.1936C38.8159 35.0705 37.661 36.9754 36.5511 38.9067V38.9072ZM40.1178 67.857C36.4169 67.4424 32.9274 66.8811 29.7045 66.1768C30.702 62.943 31.9312 59.583 33.367 56.1653C34.3887 58.1462 35.4567 60.1026 36.57 62.0331C37.7149 64.0177 38.9005 65.9615 40.1178 67.857ZM56.6877 81.6027C54.3996 79.1256 52.1177 76.3848 49.8892 73.4372C52.0528 73.5223 54.2584 73.5657 56.5001 73.5657C58.8031 73.5657 61.0797 73.5139 63.3206 73.4138C61.1203 76.4145 58.8989 79.1592 56.6877 81.6027ZM79.7263 55.9908C81.2366 59.4461 82.5096 62.7884 83.5203 65.9668C80.2444 66.7172 76.7073 67.3214 72.9804 67.7702C74.1746 65.87 75.3311 63.9462 76.4491 61.9999C77.5858 60.0215 78.6784 58.018 79.7263 55.9908ZM72.268 59.5794C70.5565 62.5635 68.7487 65.491 66.8475 68.3571C63.4038 68.6019 59.9525 68.7235 56.5001 68.7217C52.9837 68.7217 49.5635 68.6118 46.27 68.3974C44.3193 65.5379 42.477 62.6053 40.7472 59.606H40.7476C39.0259 56.6225 37.4177 53.5745 35.9265 50.4686C37.4139 47.3619 39.0172 44.3125 40.733 41.3268L40.7326 41.3272C42.4478 38.3407 44.2753 35.4207 46.2113 32.5734C49.5715 32.3183 53.0172 32.1854 56.4996 32.1854H56.5001C59.9984 32.1854 63.4486 32.3196 66.8078 32.5765C68.7243 35.4195 70.5402 38.3295 72.2521 41.3011C73.9736 44.2802 75.5982 47.3148 77.1231 50.3999C75.6138 53.5166 73.9944 56.5784 72.268 59.5794ZM82.2253 5.48062C86.0087 7.67073 87.4803 16.5025 85.103 28.0842C84.9512 28.8231 84.7808 29.5758 84.5955 30.339C79.9072 29.2528 74.8169 28.4453 69.4874 27.9434C66.3828 23.506 63.1656 19.4718 59.9361 15.9793C60.7825 15.1605 61.6491 14.3628 62.5349 13.5872C70.8768 6.30147 78.6732 3.42474 82.2253 5.48062ZM56.5001 40.2264C62.0724 40.2264 66.5898 44.7603 66.5898 50.353C66.5898 55.9456 62.0724 60.4796 56.5001 60.4796C50.9278 60.4796 46.4104 55.9456 46.4104 50.353C46.4104 44.7603 50.9278 40.2264 56.5001 40.2264Z" fill="#00D8FF"/>
	</g>
	<defs>
	<clipPath id="clip0_2_5870">
	<rect width="113" height="101" fill="white"/>
	</clipPath>
	</defs>
</g>

<g id="redux">
	<path d="M72.6971 69.5627C76.5688 69.1619 79.5061 65.8242 79.3725 61.8184C79.2393 57.8131 75.9012 54.6086 71.8959 54.6086H71.6291C67.4897 54.7422 64.2856 58.2135 64.4193 62.3525C64.5529 64.3553 65.3537 66.091 66.5553 67.2926C62.016 76.2385 55.0734 82.7807 44.6594 88.2549C37.5832 91.9934 30.2402 93.3287 22.8971 92.3943C16.8889 91.593 12.216 88.923 9.27827 84.5164C5.00614 77.9742 4.60573 70.8975 8.21065 63.8213C10.7475 58.7475 14.7525 55.009 17.2893 53.1398C16.7553 51.4041 15.9541 48.4668 15.5537 46.3307C-3.80574 60.35 -1.80287 79.3094 4.07172 88.2549C8.47745 94.9311 17.4229 99.0701 27.3029 99.0701C29.9729 99.0701 32.643 98.8029 35.3135 98.1357C52.4033 94.7975 65.3541 84.65 72.6971 69.5627ZM96.1955 53.0066C86.0483 41.1234 71.0951 34.5811 54.0053 34.5811H51.8693C50.6676 32.1779 48.1307 30.5754 45.327 30.5754H45.0598C40.9213 30.709 37.7172 34.1803 37.8504 38.3197C37.984 42.325 41.3217 45.5295 45.327 45.5295H45.5938C48.5311 45.3959 51.068 43.5266 52.1361 40.9898H54.5393C64.6865 40.9898 74.2992 43.927 82.9779 49.6684C89.6533 54.0746 94.4598 59.816 97.1299 66.7586C99.3996 72.3664 99.266 77.8406 96.8627 82.5139C93.1246 89.5902 86.8496 93.4623 78.5717 93.4623C73.2311 93.4623 68.1578 91.8598 65.4873 90.6582C64.0188 91.9934 61.3484 94.1295 59.4791 95.4652C65.2205 98.1352 71.0951 99.6041 76.7025 99.6041C89.5197 99.6041 98.9992 92.5275 102.604 85.4512C106.476 77.707 106.209 64.3553 96.1955 53.0066ZM28.3709 71.832C28.5045 75.8377 31.8422 79.0418 35.8475 79.0418H36.1147C40.2537 78.9086 43.4578 75.4369 43.3242 71.2979C43.191 67.2922 39.8529 64.0881 35.8475 64.0881H35.5807C35.3135 64.0881 34.9127 64.0881 34.6463 64.2213C29.1721 55.1422 26.9025 45.2623 27.7037 34.5807C28.2373 26.5697 30.9078 19.6266 35.5807 13.8852C39.4525 8.94508 46.9291 6.5418 52.0029 6.40861C66.1549 6.14139 72.1627 23.7656 72.5635 30.8422C74.2992 31.2426 77.2365 32.1775 79.2393 32.8451C77.6369 11.2156 64.2856 0 51.4688 0C39.4524 0 28.3709 8.67869 23.9647 21.4963C17.8234 38.5865 21.8287 55.009 29.3053 67.9602C28.6381 68.8947 28.2373 70.3635 28.3709 71.8324V71.832Z" fill="#764ABC"/>
</g>

<g id="bootstrap">
	<g clip-path="url(#clip0_2_5874)">
	<path d="M0 75.7821C0 81.9781 5.08028 87 11.3468 87H76.6528C82.9204 87 88 81.9774 88 75.7821V11.2182C88 5.02187 82.9197 0 76.6532 0H11.3472C5.07959 0 0 5.02255 0 11.2179V75.7818V75.7821Z" fill="#563D7C"/>
	<path d="M36.4918 38.4832V26.1629H47.4612C48.5062 26.1629 49.5134 26.2489 50.4834 26.4212C51.4535 26.5931 52.3119 26.9003 53.0581 27.3431C53.8041 27.786 54.4012 28.4007 54.8491 29.1875C55.2966 29.9746 55.5208 30.9829 55.5208 32.2121C55.5208 34.4255 54.8491 36.0241 53.5057 37.0076C52.1627 37.9915 50.4463 38.4832 48.3567 38.4832H36.4918ZM24.7758 17.1621V69.8379H50.5955C52.9835 69.8379 55.3094 69.5429 57.5729 68.9526C59.8365 68.3623 61.8513 67.4525 63.6174 66.223C65.3833 64.9934 66.7889 63.407 67.8335 61.4645C68.8785 59.5216 69.4007 57.2222 69.4007 54.5663C69.4007 51.2709 68.5922 48.4553 66.9755 46.1192C65.3585 43.7828 62.9083 42.1474 59.6248 41.2129C62.0128 40.0819 63.8165 38.6307 65.0354 36.8601C66.254 35.0895 66.8635 32.8765 66.8635 30.2203C66.8635 27.7612 66.453 25.6956 65.6322 24.0232C64.8113 22.3512 63.6546 21.0108 62.162 20.0025C60.6698 18.9942 58.8789 18.2686 56.7892 17.8262C54.6999 17.3833 52.3864 17.1621 49.8492 17.1621H24.7758ZM36.4918 60.8371V46.3771H49.2521C51.7894 46.3771 53.8292 46.9548 55.3716 48.111C56.9136 49.2668 57.685 51.1971 57.685 53.9023C57.685 55.2797 57.4485 56.4107 56.9759 57.296C56.5032 58.1813 55.869 58.8823 55.0729 59.3986C54.2771 59.9151 53.3565 60.2839 52.3118 60.5054C51.2668 60.7263 50.1727 60.8371 49.0284 60.8371H36.4918Z" fill="white"/>
	</g>
	<defs>
	<clipPath id="clip0_2_5874">
	<rect width="88" height="87" fill="white"/>
	</clipPath>
	</defs>
</g>

<g id="sass">
	<g clip-path="url(#clip0_2_5872)">
<path d="M100.673 50.0767C96.603 50.0975 93.0653 51.0695 90.1035 52.5064C89.0162 50.3721 87.9295 48.4708 87.738 47.0761C87.5246 45.4494 87.2691 44.4561 87.5246 42.5122C87.7805 40.5683 88.9312 37.8002 88.9098 37.589C88.8887 37.3779 88.6538 36.3846 86.3098 36.3638C83.9658 36.3425 81.9413 36.8074 81.7068 37.42C81.4724 38.0326 81.025 39.4274 80.7266 40.8638C80.3216 42.9771 76.0386 50.5199 73.5881 54.4711C72.7993 52.9291 72.1174 51.5765 71.968 50.499C71.755 48.8723 71.4991 47.879 71.755 45.9351C72.0109 43.9912 73.1617 41.2235 73.1402 41.0119C73.1187 40.8008 72.8843 39.8075 70.5403 39.7867C68.1958 39.7654 66.1713 40.2303 65.9373 40.8429C65.7029 41.456 65.4469 42.8924 64.957 44.2871C64.4667 45.6818 58.7769 58.2751 57.2852 61.5285C56.6824 62.8454 56.0501 64.1487 55.3886 65.4376C55.3886 65.4376 55.3672 65.5011 55.3032 65.6067C55.0954 66.0108 54.8824 66.4123 54.6643 66.8111V66.8319C54.3444 67.4028 54.0035 67.9307 53.833 67.9307C53.705 67.9307 53.4706 66.4096 53.8755 64.3388C54.7278 59.9652 56.7524 53.1616 56.7313 52.9291C56.7313 52.8022 57.1148 51.6191 55.4101 51.0061C53.7475 50.3934 53.1511 51.4075 53.0017 51.4075C52.8527 51.4075 52.7458 51.7669 52.7458 51.7669C52.7458 51.7669 54.6003 44.1181 49.2085 44.1181C45.8417 44.1181 41.1958 47.7735 38.8943 51.0695C36.278 52.4812 33.6639 53.8969 31.052 55.3166C29.7953 56.014 28.4951 56.7114 27.2803 57.3661C27.1949 57.2818 27.1099 57.1758 27.0244 57.0915C20.5034 50.1823 8.442 45.3012 8.95339 36.0257C9.14534 32.645 10.3171 23.7705 32.1178 12.9948C50.0608 4.22589 64.3392 6.65555 66.8111 12.0437C70.3484 19.735 59.1608 34.0184 40.6204 36.0887C33.5455 36.8708 29.8373 34.1661 28.9 33.152C27.9197 32.0953 27.7703 32.0319 27.4079 32.2435C26.8115 32.5607 27.1949 33.5114 27.4079 34.0605C27.9622 35.497 30.2422 38.0326 34.0994 39.2796C37.5091 40.378 45.7988 40.9911 55.8361 37.1454C67.0666 32.8348 75.8466 20.8547 73.2682 10.8184C70.6893 0.633969 53.641 -2.7255 37.5091 2.95805C27.9197 6.33927 17.52 11.6635 10.0402 18.594C1.15363 26.8341 -0.253039 33.9971 0.322334 36.9977C2.38984 47.6466 17.2006 54.5771 23.1248 59.7115C22.8263 59.8805 22.5489 60.0287 22.3149 60.1556C19.3526 61.6133 8.05811 67.4658 5.24523 73.6569C2.04891 80.6717 5.75708 85.7009 8.20756 86.3765C15.8154 88.4686 23.6362 84.7077 27.8342 78.4953C32.0323 72.2834 31.5209 64.2119 29.5818 60.5144C29.5604 60.4723 29.5393 60.4297 29.4964 60.3876C30.2637 59.9439 31.052 59.479 31.8194 59.0354C33.2296 58.2088 34.6578 57.4127 36.1029 56.6475C35.3781 58.6127 34.8452 60.958 34.5897 64.3388C34.2698 68.3114 35.9105 73.4666 38.063 75.4947C39.0223 76.3829 40.1515 76.4037 40.8763 76.4037C43.3908 76.4037 44.5205 74.3329 45.7778 71.882C47.3119 68.8818 48.6971 65.3955 48.6971 65.3955C48.6971 65.3955 46.971 74.8191 51.6595 74.8191C53.3641 74.8191 55.0902 72.6215 55.8575 71.5018V71.5227C55.8575 71.5227 55.9 71.4592 55.9855 71.3115C56.156 71.0369 56.2624 70.8674 56.2624 70.8674V70.8257C56.9443 69.6422 58.4789 66.9588 60.7589 62.5005C63.6998 56.7535 66.5342 49.5697 66.5342 49.5697C66.5342 49.5697 66.7901 51.3232 67.6634 54.2391C68.1753 55.9506 69.2401 57.831 70.0929 59.6481C69.411 60.5992 68.9846 61.1271 68.9846 61.1271L69.0061 61.1484C68.4518 61.8666 67.8554 62.6482 67.1945 63.4095C64.8716 66.1558 62.1016 69.3046 61.7178 70.2127C61.2699 71.2902 61.3768 72.0723 62.2296 72.7062C62.8475 73.1711 63.9553 73.2341 65.085 73.1711C67.1735 73.0229 68.6437 72.5159 69.3681 72.1992C70.4978 71.7977 71.819 71.1846 73.0548 70.2761C75.3352 68.6068 76.72 66.2193 76.5925 63.0714C76.5285 61.3387 75.9531 59.6059 75.2498 57.9787C75.4632 57.6833 75.6547 57.3874 75.8681 57.0915C79.4693 51.8724 82.2612 46.1463 82.2612 46.1463C82.2612 46.1463 82.5171 47.8999 83.3905 50.8162C83.8168 52.2952 84.6907 53.9011 85.4575 55.4644C82.0693 58.1904 79.9807 61.3595 79.2349 63.4303C77.8926 67.276 78.9365 69.0083 80.9185 69.4097C81.8133 69.6 83.092 69.1773 84.0298 68.7758C85.2231 68.3956 86.6297 67.7409 87.9724 66.7685C90.2529 65.0996 92.4474 62.7751 92.3195 59.6272C92.2555 58.1904 91.8721 56.7743 91.3392 55.4009C94.2161 54.2183 97.9242 53.563 102.655 54.1122C112.799 55.2953 114.802 61.5707 114.418 64.2124C114.035 66.8532 111.904 68.2901 111.201 68.7337C110.497 69.1777 110.263 69.3254 110.327 69.6422C110.412 70.1071 110.753 70.0862 111.35 70.0015C112.181 69.8538 116.678 67.8673 116.869 63.0075C117.189 56.7956 111.222 50.0133 100.673 50.0767ZM22.4214 76.2347C19.0542 79.8688 14.3662 81.2422 12.3417 80.0804C10.1681 78.8334 11.0204 73.4666 15.1545 69.6213C17.669 67.276 20.9083 65.0992 23.0608 63.7683C23.5507 63.4724 24.2755 63.0501 25.1493 62.5218C25.2983 62.437 25.3838 62.3949 25.3838 62.3949L25.8952 62.0777C27.4078 67.5714 25.9591 72.4103 22.4214 76.2347ZM46.9285 59.7115C45.7563 62.5431 43.3058 69.7904 41.8141 69.3889C40.5354 69.0509 39.7466 63.5572 41.5582 58.1269C42.4745 55.4009 44.4136 52.147 45.5433 50.8796C47.3759 48.851 49.4005 48.1745 49.8904 48.9992C50.5087 50.0767 47.6529 57.9366 46.9285 59.7115ZM67.152 69.3042C66.6617 69.5579 66.1932 69.7269 65.9798 69.6C65.8308 69.5153 66.1932 69.1773 66.1932 69.1773C66.1932 69.1773 68.7292 66.473 69.7305 65.2473C70.3063 64.5291 70.9877 63.684 71.7125 62.7329V63.0075C71.7125 66.2406 68.5583 68.4169 67.1516 69.3042H67.152ZM82.7511 65.7757C82.3887 65.5219 82.4527 64.6768 83.6674 62.0356C84.1363 61.0002 85.2441 59.2679 87.1411 57.5986C87.3541 58.2746 87.5035 58.9299 87.4821 59.5425C87.4606 63.6206 84.5202 65.1417 82.7511 65.7757Z" fill="#CD6799"/>
</g>
<defs>
<clipPath id="clip0_2_5872">
<rect width="117" height="87" fill="white"/>
</clipPath>
</defs>
</g>
	
<g id="git">
<g clip-path="url(#clip0_2_5868)">
<path d="M103.02 47.8219L57.1758 1.98038C54.5372 -0.6598 50.2552 -0.6598 47.6134 1.98038L38.0937 11.5001L50.1699 23.5763C52.9762 22.6281 56.1943 23.2642 58.4313 25.5012C60.6789 27.7525 61.3106 30.9981 60.3393 33.8134L71.9775 45.452C74.7932 44.482 78.0421 45.1095 80.291 47.3621C83.434 50.5039 83.434 55.596 80.291 58.7399C77.1471 61.8841 72.055 61.8841 68.9095 58.7399C66.5454 56.3733 65.9613 52.9013 67.1582 49.9888L56.3046 39.1352L56.3034 67.6973C57.0902 68.0863 57.8088 68.6002 58.4313 69.2189C61.5743 72.3607 61.5743 77.4532 58.4313 80.5995C55.2874 83.7422 50.1929 83.7422 47.0535 80.5995C43.9105 77.4532 43.9105 72.3611 47.0535 69.2193C47.8067 68.4658 48.7019 67.869 49.6871 67.4635V38.6352C48.7004 38.2324 47.8048 37.6353 47.0535 36.8793C44.6722 34.5013 44.0996 31.0071 45.3198 28.0831L33.4154 16.1775L1.98105 47.6099C-0.660352 50.2525 -0.660352 54.5349 1.98105 57.1755L47.8259 103.018C50.4652 105.658 54.7464 105.658 57.3891 103.018L103.019 57.3884C105.66 54.747 105.66 50.4621 103.019 47.8219" fill="#DE4C36"/>
</g>
<defs>
<clipPath id="clip0_2_5868">
<rect width="105" height="105" fill="white"/>
</clipPath>
</defs>
</g>

<g id="github">
	<path fill-rule="evenodd" clip-rule="evenodd" d="M44 0C19.69 0 0 19.69 0 44C0 63.47 12.595 79.915 30.085 85.745C32.285 86.13 33.11 84.81 33.11 83.655C33.11 82.61 33.055 79.145 33.055 75.46C22 77.495 19.14 72.765 18.26 70.29C17.765 69.025 15.62 65.12 13.75 64.075C12.21 63.25 10.01 61.215 13.695 61.16C17.16 61.105 19.635 64.35 20.46 65.67C24.42 72.325 30.745 70.455 33.275 69.3C33.66 66.44 34.815 64.515 36.08 63.415C26.29 62.315 16.06 58.52 16.06 41.69C16.06 36.905 17.765 32.945 20.57 29.865C20.13 28.765 18.59 24.255 21.01 18.205C21.01 18.205 24.695 17.05 33.11 22.715C36.63 21.725 40.37 21.23 44.11 21.23C47.85 21.23 51.59 21.725 55.11 22.715C63.525 16.995 67.21 18.205 67.21 18.205C69.63 24.255 68.09 28.765 67.65 29.865C70.455 32.945 72.16 36.85 72.16 41.69C72.16 58.575 61.875 62.315 52.085 63.415C53.68 64.79 55.055 67.43 55.055 71.555C55.055 77.44 55 82.17 55 83.655C55 84.81 55.825 86.185 58.025 85.745C66.7597 82.796 74.3497 77.1822 79.7268 69.6937C85.1039 62.2052 87.9974 53.219 88 44C88 19.69 68.31 0 44 0Z" fill="#FFFEFE"/>
</g>

<g id="linkGithub">
	<path fill-rule="evenodd" clip-rule="evenodd" d="M15 0C6.7125 0 0 6.7125 0 15C0 21.6375 4.29375 27.2437 10.2563 29.2313C11.0063 29.3625 11.2875 28.9125 11.2875 28.5188C11.2875 28.1625 11.2688 26.9813 11.2688 25.725C7.5 26.4188 6.525 24.8062 6.225 23.9625C6.05625 23.5312 5.325 22.2 4.6875 21.8438C4.1625 21.5625 3.4125 20.8687 4.66875 20.85C5.85 20.8313 6.69375 21.9375 6.975 22.3875C8.325 24.6562 10.4812 24.0187 11.3438 23.625C11.475 22.65 11.8688 21.9937 12.3 21.6187C8.9625 21.2437 5.475 19.95 5.475 14.2125C5.475 12.5813 6.05625 11.2313 7.0125 10.1813C6.8625 9.80625 6.3375 8.26875 7.1625 6.20625C7.1625 6.20625 8.41875 5.8125 11.2875 7.74375C12.4875 7.40625 13.7625 7.2375 15.0375 7.2375C16.3125 7.2375 17.5875 7.40625 18.7875 7.74375C21.6562 5.79375 22.9125 6.20625 22.9125 6.20625C23.7375 8.26875 23.2125 9.80625 23.0625 10.1813C24.0188 11.2313 24.6 12.5625 24.6 14.2125C24.6 19.9688 21.0938 21.2437 17.7563 21.6187C18.3 22.0875 18.7688 22.9875 18.7688 24.3937C18.7688 26.4 18.75 28.0125 18.75 28.5188C18.75 28.9125 19.0312 29.3813 19.7812 29.2313C22.759 28.2259 25.3465 26.3121 27.1796 23.7592C29.0127 21.2063 29.9991 18.1429 30 15C30 6.7125 23.2875 0 15 0Z" fill="#A7A7A7"/>
</g>

<g id="linkedinLink">
	<g clip-path="url(#clip0_2_5860)">
<path d="M15 0.600098C7.04698 0.600098 0.599976 7.0471 0.599976 15.0001C0.599976 22.9531 7.04698 29.4001 15 29.4001C22.953 29.4001 29.4 22.9531 29.4 15.0001C29.4 7.0471 22.953 0.600098 15 0.600098ZM11.475 20.9686H8.55898V11.5846H11.475V20.9686ZM9.99898 10.4326C9.07798 10.4326 8.48248 9.7801 8.48248 8.9731C8.48248 8.1496 9.09598 7.5166 10.0365 7.5166C10.977 7.5166 11.553 8.1496 11.571 8.9731C11.571 9.7801 10.977 10.4326 9.99898 10.4326ZM22.125 20.9686H19.209V15.7681C19.209 14.5576 18.786 13.7356 17.7315 13.7356C16.926 13.7356 16.4475 14.2921 16.236 14.8276C16.158 15.0181 16.1385 15.2881 16.1385 15.5566V20.9671H13.221V14.5771C13.221 13.4056 13.1835 12.4261 13.1445 11.5831H15.678L15.8115 12.8866H15.87C16.254 12.2746 17.1945 11.3716 18.768 11.3716C20.6865 11.3716 22.125 12.6571 22.125 15.4201V20.9686Z" fill="#A7A7A7"/>
</g>
<defs>
<clipPath id="clip0_2_5860">
<rect width="30" height="30" fill="white"/>
</clipPath>
</defs>
</g>

<g id="facebook">
	<path d="M48 24C48 10.7438 37.2562 0 24 0C10.7438 0 0 10.7438 0 24C0 35.9813 8.775 45.9094 20.25 47.7094V30.9375H14.1562V24H20.25V18.7125C20.25 12.6984 23.8313 9.375 29.3156 9.375C31.9406 9.375 34.6875 9.84375 34.6875 9.84375V15.75H31.6594C28.6781 15.75 27.75 17.6016 27.75 19.5V24H34.4062L33.3422 30.9375H27.75V47.7094C39.225 45.9094 48 35.9813 48 24Z" fill="#A7A7A7"/>
<path d="M33.3422 30.9375L34.4062 24H27.75V19.5C27.75 17.6016 28.6781 15.75 31.6594 15.75H34.6875V9.84375C34.6875 9.84375 31.9406 9.375 29.3156 9.375C23.8313 9.375 20.25 12.6984 20.25 18.7125V24H14.1562V30.9375H20.25V47.7094C21.4734 47.9016 22.725 48 24 48C25.275 48 26.5266 47.9016 27.75 47.7094V30.9375H33.3422Z" fill="black"/>
</g>

<g id="typeScript">
	<path d="M0 60V120H60H120V60V0H60H0V60Z" fill="#007ACC"/>
	<path d="M26.5373 60.3979L26.4992 65.3122H34.3087H42.1182L42.1182 87.5026V109.693H47.6421H53.1659V87.5026L53.1659 65.3122H60.9754H68.7849V60.4931C68.7849 57.8264 68.7278 55.5979 68.6516 55.5407C68.5944 55.4645 59.0897 55.4264 47.5659 55.4455L26.5944 55.5026L26.5373 60.3979Z" fill="white"/>
	<path d="M96.8265 55.3636C99.8741 56.1255 102.198 57.4779 104.331 59.6874C105.436 60.8684 107.074 63.0208 107.207 63.535C107.246 63.6874 102.026 67.1922 98.8646 69.1541C98.7503 69.2303 98.2931 68.7351 97.7789 67.9731C96.236 65.7255 94.6169 64.7541 92.1408 64.5827C88.5027 64.335 86.1598 66.2398 86.1789 69.4208C86.1789 70.3541 86.3122 70.9065 86.6931 71.6684C87.4931 73.3255 88.9789 74.316 93.6455 76.3351C102.236 80.0303 105.912 82.4684 108.198 85.935C110.75 89.8017 111.322 95.9731 109.588 100.564C107.684 105.554 102.96 108.945 96.3122 110.068C94.255 110.43 89.3789 110.373 87.1693 109.973C82.3503 109.116 77.7789 106.735 74.9598 103.611C73.855 102.392 71.7027 99.2112 71.836 98.9827C71.8931 98.9065 72.3884 98.6017 72.9408 98.2779C73.4741 97.9731 75.4931 96.8112 77.3979 95.7065L80.8455 93.7065L81.5693 94.7731C82.5789 96.316 84.7884 98.4303 86.1217 99.135C89.9503 101.154 95.2074 100.868 97.7979 98.5446C98.9027 97.535 99.3598 96.4874 99.3598 94.9446C99.3598 93.5541 99.1884 92.9446 98.4646 91.897C97.5312 90.5636 95.6265 89.4398 90.2169 87.097C84.0265 84.4303 81.3598 82.7731 78.9217 80.1446C77.5122 78.6208 76.1789 76.1827 75.6265 74.1446C75.1693 72.4493 75.055 68.2017 75.4169 66.4874C76.6931 60.5065 81.2074 56.335 87.7217 55.097C89.836 54.697 94.7503 54.8493 96.8265 55.3636Z" fill="white"/>
</g>

<g id="styled">
	<title>file_type_styled</title><path d="M18.05,29.6c.042-.095.148-.161.225-.241,1.175-1.232,2.36-2.453,3.519-3.7A3.2,3.2,0,0,0,22.808,23a5.925,5.925,0,0,0-.143-.624c-.316.3-.61.573-.906.848-.46.428-.918.858-1.382,1.281a1.931,1.931,0,0,1-2.148.419,1.973,1.973,0,0,1-1.29-1.75,1.04,1.04,0,0,0-.043-.146c-.353.3-.691.576-1.026.86l-6.963,5.9c-.048.041-.1.092-.145.132h9.283l-.014-.009C17.981,29.876,18.007,29.692,18.05,29.6Z" style="fill:#ffcebf"/><path d="M8.337,29.6a1.239,1.239,0,0,1,.295-.276l9.636-8.175q.986-.837,1.963-1.683a.523.523,0,0,0,.182-.224,5.364,5.364,0,0,0,.065-2.069c-.1.07-.154.1-.2.149-.789.706-1.574,1.418-2.367,2.12a1.762,1.762,0,0,1-2.048.329,1.889,1.889,0,0,1-1.08-1.807c0-.085,0-.169,0-.324-.145.106-.251.177-.35.257Q8.648,22.529,2.865,27.154c-.174.139-.382.449-.61.148s.119-.425.294-.565q6.165-4.947,12.336-9.885c.67-.537.714-.762.278-1.615l-.26.244c-.713.663-1.434,1.317-2.136,1.991a2.121,2.121,0,0,1-3.585-1.337c-.133.1-.248.173-.357.258l-6.1,4.728a1.485,1.485,0,0,1-.356.258.446.446,0,0,1-.3-.015v8.561H8.325A.365.365,0,0,1,8.337,29.6Z" style="fill:#ffcebf"/><path d="M25.237,2.423c-.17.557-.335,1.115-.484,1.678a1.688,1.688,0,0,0,.9,2.09,7.122,7.122,0,0,0,3.818.8V2.518a.73.73,0,0,1,.016-.294.666.666,0,0,1,.105-.149H25.233C25.3,2.153,25.277,2.29,25.237,2.423Z" style="fill:#ff6196"/><path d="M16.482,12.032a2.422,2.422,0,0,1-.5,1.376A22.671,22.671,0,0,1,12.256,17.2a1.442,1.442,0,0,1-1.684.2,1.393,1.393,0,0,1-.843-1.368,1.624,1.624,0,0,1,.417-.947,35.848,35.848,0,0,1,5.019-3.993.71.71,0,0,1,.829-.034A1.041,1.041,0,0,1,16.482,12.032Z" style="fill:#ff87af"/><path d="M15.284,18.093a1.437,1.437,0,0,1,.448-1.2,38.336,38.336,0,0,1,4.87-3.813c.052-.033.1-.066.157-.1a.837.837,0,0,1,1.025.035.861.861,0,0,1,.242.979,4.39,4.39,0,0,1-1.168,1.908c-1.105,1.1-2.252,2.164-3.4,3.22a1.124,1.124,0,0,1-1.364.192A1.512,1.512,0,0,1,15.284,18.093Z" style="fill:#ff87af"/><path d="M22.5,18.754c-.28.3-.568.586-.837.893a1.89,1.89,0,0,0-.2.38c.148.044.321.16.441.119.611-.205,1.207-.451,1.878-.71-.146.336-.256.646-.411.93A12.189,12.189,0,0,1,21,23.238q-.532.513-1.105.981a1.484,1.484,0,0,1-2.415-.92,1.1,1.1,0,0,1,.238-.813,22.187,22.187,0,0,1,4.623-3.823.193.193,0,0,1,.065-.013Z" style="fill:#ff87af"/><path d="M24.794,14.771l1.711-7.6,1.2.281-.619,1.881c-.578,1.75-1.163,3.5-1.727,5.252C25.249,14.909,25.105,14.969,24.794,14.771Z" style="fill:#ff6196"/><path d="M22.862,19.241c.181-.691.361-1.33.513-1.976a4.468,4.468,0,0,1,.826-1.721c.243-.319.516-.192.795-.123.258.063.323.252.334.5a2.845,2.845,0,0,1-.588,1.907A4.8,4.8,0,0,1,22.862,19.241Z" style="fill:#ff6196"/><path d="M29.993,2.894a3.623,3.623,0,0,0-.017-.668.291.291,0,0,0-.116-.151A.381.381,0,0,0,29.708,2c-.032-.006-.077.027-.12.074a.666.666,0,0,0-.105.149.73.73,0,0,0-.016.294V6.989a7.122,7.122,0,0,1-3.818-.8,1.688,1.688,0,0,1-.9-2.09c.149-.563.314-1.121.484-1.678.04-.133.063-.27,0-.348a.2.2,0,0,0-.135-.064.3.3,0,0,0-.182.064.434.434,0,0,0-.171.19c-.2.6-.376,1.206-.529,1.818a2.148,2.148,0,0,0-.046.737,2.339,2.339,0,0,0,1.542,2c.189.079.3.157.247.406-.073.316-.144.632-.216.949q-.735,3.222-1.462,6.447a.483.483,0,0,1-.121.257,3.228,3.228,0,0,0-.791.92,4.8,4.8,0,0,0-.53,1.5.981.981,0,0,1-.558.785c-.417.211-.8.484-1.263.768A12.639,12.639,0,0,0,21,17.179a1.062,1.062,0,0,1,.284-.96,4.75,4.75,0,0,0,1.258-2.194,1.294,1.294,0,0,0-1.208-1.7,1.7,1.7,0,0,0-.929.264c-.957.646-1.888,1.332-2.812,2.026-.547.412-1.062.868-1.592,1.3a.418.418,0,0,1-.059-.081.842.842,0,0,0-.059-.214c-.443-.684-.136-1.181.345-1.692A2.793,2.793,0,0,0,17,11.977a1.568,1.568,0,0,0-.327-1.026,1.459,1.459,0,0,0-.438-.363,1.337,1.337,0,0,0-1.517.162l-.279.2c-.637.456-1.282.9-1.895,1.388-.895.712-1.769,1.454-2.626,2.214-.4.353-.692.835-1.107,1.163-2.164,1.709-4.351,3.387-6.53,5.076a1.022,1.022,0,0,0-.205.161.164.164,0,0,0-.016.029c-.046.107-.085.284-.031.349a.141.141,0,0,0,.047.033.446.446,0,0,0,.3.015,1.485,1.485,0,0,0,.356-.258l6.1-4.728c.109-.085.224-.162.357-.258a2.121,2.121,0,0,0,3.585,1.337c.7-.674,1.423-1.328,2.136-1.991l.26-.244c.436.853.392,1.078-.278,1.615Q8.716,21.793,2.549,26.737c-.175.14-.521.267-.294.565s.436-.009.61-.148Q8.651,22.533,14.429,17.9c.1-.08.205-.151.35-.257,0,.155,0,.239,0,.324a1.889,1.889,0,0,0,1.08,1.807,1.762,1.762,0,0,0,2.048-.329c.793-.7,1.578-1.414,2.367-2.12.05-.045.108-.079.2-.149a5.364,5.364,0,0,1-.065,2.069.523.523,0,0,1-.182.224q-.978.845-1.963,1.683L8.632,29.328a1.239,1.239,0,0,0-.295.276.365.365,0,0,0-.012.321v0a.376.376,0,0,0,.32.063.294.294,0,0,0,.116-.065c.05-.04.1-.091.145-.132l6.963-5.9c.335-.284.673-.564,1.026-.86a1.04,1.04,0,0,1,.043.146,1.973,1.973,0,0,0,1.29,1.75,1.931,1.931,0,0,0,2.148-.419c.464-.423.922-.853,1.382-1.281.3-.275.59-.551.906-.848a5.925,5.925,0,0,1,.143.624,3.2,3.2,0,0,1-1.014,2.649c-1.159,1.248-2.344,2.469-3.519,3.7-.077.08-.183.146-.225.241s-.069.281-.019.321l.014.009a.573.573,0,0,0,.338.051.136.136,0,0,0,.081-.051c.028-.029.055-.065.082-.092.952-.984,1.909-1.963,2.854-2.954a13.982,13.982,0,0,0,1.074-1.223,3.411,3.411,0,0,0,.61-3.616.516.516,0,0,1,.074-.386c.065-.112.137-.221.211-.329a4.632,4.632,0,0,0,.587-1,7.547,7.547,0,0,1,1.339-2.4,2.792,2.792,0,0,0,.5-2.469.988.988,0,0,1,0-.489c.506-1.567,1.027-3.129,1.543-4.692q.347-1.05.69-2.094l.213-.647c.454,0,.882-.009,1.308,0,.354.01.462-.156.458-.5C29.985,5.652,29.993,4.273,29.993,2.894ZM12.256,17.2a1.442,1.442,0,0,1-1.684.2,1.393,1.393,0,0,1-.843-1.368,1.624,1.624,0,0,1,.417-.947,35.848,35.848,0,0,1,5.019-3.993.852.852,0,0,1,.326-.14.656.656,0,0,1,.238,0,.763.763,0,0,1,.265.106,1.041,1.041,0,0,1,.488.975,2.422,2.422,0,0,1-.5,1.376A22.671,22.671,0,0,1,12.256,17.2Zm5.2,1.929a1.124,1.124,0,0,1-1.364.192,1.512,1.512,0,0,1-.81-1.224,1.437,1.437,0,0,1,.448-1.2,38.336,38.336,0,0,1,4.87-3.813c.052-.033.1-.066.157-.1a.837.837,0,0,1,1.025.035.861.861,0,0,1,.242.979,4.39,4.39,0,0,1-1.168,1.908C19.753,17.008,18.606,18.069,17.458,19.125Zm5.911,1.241A12.189,12.189,0,0,1,21,23.238q-.532.513-1.105.981a1.484,1.484,0,0,1-2.415-.92,1.1,1.1,0,0,1,.238-.813,22.187,22.187,0,0,1,4.623-3.823.193.193,0,0,1,.065-.013l.1.1c-.28.3-.568.586-.837.893a1.89,1.89,0,0,0-.2.38c.148.044.321.16.441.119.483-.162.958-.35,1.467-.55l.411-.16C23.634,19.772,23.524,20.082,23.369,20.366Zm1.373-2.535a4.363,4.363,0,0,1-1.373,1.152q-.247.138-.507.258c.178-.681.356-1.312.507-1.95l.006-.026a4.468,4.468,0,0,1,.826-1.721c.243-.319.516-.192.795-.123.258.063.323.252.334.5A2.845,2.845,0,0,1,24.742,17.831Zm2.34-8.5c-.578,1.75-1.163,3.5-1.727,5.252-.106.329-.25.389-.561.191l1.483-6.593.228-1.012,1.2.281c-.082.247-.161.49-.241.731Z"/>
</g>

<g id="abstract">
	<g opacity="0.25">
<rect x="585.236" y="470.58" width="443" height="443" transform="rotate(165 585.236 470.58)" stroke="url(#paint0_linear_19_1817)" stroke-opacity="0.5"/>
<rect x="616.53" y="395.03" width="443" height="443" transform="rotate(150 616.53 395.03)" stroke="url(#paint1_linear_19_1817)" stroke-opacity="0.5"/>
<rect x="627.204" y="313.956" width="443" height="443" transform="rotate(135 627.204 313.956)" stroke="url(#paint2_linear_19_1817)" stroke-opacity="0.5"/>
<rect x="616.53" y="232.881" width="443" height="443" transform="rotate(120 616.53 232.881)" stroke="url(#paint3_linear_19_1817)" stroke-opacity="0.5"/>
<rect x="585.236" y="157.331" width="443" height="443" transform="rotate(105 585.236 157.331)" stroke="url(#paint4_linear_19_1817)" stroke-opacity="0.5"/>
</g>
<defs>
<linearGradient id="paint0_linear_19_1817" x1="807.849" y1="470.933" x2="807.849" y2="905.433" gradientUnits="userSpaceOnUse">
<stop stop-color="white"/>
<stop offset="1" stop-color="white" stop-opacity="0"/>
</linearGradient>
<linearGradient id="paint1_linear_19_1817" x1="839.213" y1="395.213" x2="839.213" y2="829.713" gradientUnits="userSpaceOnUse">
<stop stop-color="white"/>
<stop offset="1" stop-color="white" stop-opacity="0"/>
</linearGradient>
<linearGradient id="paint2_linear_19_1817" x1="849.911" y1="313.956" x2="849.911" y2="748.456" gradientUnits="userSpaceOnUse">
<stop stop-color="white"/>
<stop offset="1" stop-color="white" stop-opacity="0"/>
</linearGradient>
<linearGradient id="paint3_linear_19_1817" x1="839.213" y1="232.698" x2="839.213" y2="667.198" gradientUnits="userSpaceOnUse">
<stop stop-color="white"/>
<stop offset="1" stop-color="white" stop-opacity="0"/>
</linearGradient>
<linearGradient id="paint4_linear_19_1817" x1="807.849" y1="156.978" x2="807.849" y2="591.478" gradientUnits="userSpaceOnUse">
<stop stop-color="white"/>
<stop offset="1" stop-color="white" stop-opacity="0"/>
</linearGradient>
</defs>
</g>



<g id="logoFooter">
	<g clip-path="url(#clip0_2_5989)">
<path d="M12.5581 0V3.83066C11.5028 3.83066 10.6796 3.98157 10.0882 4.28338C9.49679 4.57357 9.24169 5.15977 9.32287 6.04199L9.86206 11.1785C10.0012 12.4786 9.85626 13.5292 9.42722 14.3301C9.00978 15.131 8.36623 15.7464 7.49655 16.1758C6.63848 16.5938 5.62386 16.8897 4.45271 17.0638C5.69343 17.2495 6.74284 17.5514 7.60092 17.9693C8.45899 18.3871 9.08516 18.9907 9.47941 19.7801C9.87366 20.5695 10.0012 21.6258 9.86206 22.9492L9.32287 28.0857C9.24169 28.9679 9.49679 29.5541 10.0882 29.8443C10.6796 30.146 11.5028 30.297 12.5581 30.297V34.1277C9.35765 34.1277 7.1081 33.6401 5.80939 32.6651C4.52229 31.7016 4.00048 30.0475 4.24398 27.7026L4.76579 22.7227C4.85856 21.8406 4.70782 21.1499 4.31357 20.6507C3.93091 20.1516 3.36272 19.8033 2.60901 19.6059C1.85529 19.3971 0.985626 19.2926 0 19.2926V14.8351C0.97403 14.8351 1.8379 14.7364 2.59162 14.5391C3.34533 14.3301 3.91932 13.9761 4.31357 13.477C4.70782 12.9778 4.85856 12.2871 4.76579 11.4049L4.24398 6.45987C3.98889 4.06861 4.51068 2.39706 5.80939 1.4452C7.1081 0.481734 9.35765 0 12.5581 0Z" fill="#A7A7A7"/>
<path d="M27.633 4.5097C30.5087 4.5097 32.6771 5.62408 34.1381 7.85282C35.6108 10.07 36.3471 13.1635 36.3471 17.1335C36.3471 21.115 35.6108 24.2318 34.1381 26.4837C32.6771 28.7241 30.5087 29.8443 27.633 29.8443C24.7342 29.8443 22.5541 28.7241 21.0931 26.4837C19.6436 24.2318 18.9189 21.115 18.9189 17.1335C18.9189 13.1635 19.6436 10.07 21.0931 7.85282C22.5541 5.62408 24.7342 4.5097 27.633 4.5097ZM27.633 8.49707C26.4039 8.49707 25.5052 9.15873 24.937 10.482C24.3689 11.7938 24.0847 14.0109 24.0847 17.1335C24.0847 18.155 24.1022 19.0662 24.1369 19.8671C24.1718 20.6565 24.224 21.3588 24.2935 21.974L30.1724 9.66367C29.8942 9.22258 29.5463 8.92077 29.1289 8.75825C28.7231 8.58413 28.2244 8.49707 27.633 8.49707ZM31.1465 17.1335C31.1465 15.7986 31.1175 14.6725 31.0595 13.7555L25.511 25.2301C25.7662 25.4738 26.0676 25.6421 26.4154 25.735C26.775 25.8278 27.1808 25.8743 27.633 25.8743C28.4564 25.8743 29.1231 25.5958 29.6333 25.0386C30.1551 24.4814 30.5377 23.5643 30.7812 22.2875C31.0248 20.9989 31.1465 19.2809 31.1465 17.1335Z" fill="#A7A7A7"/>
<path d="M48.5 4.5097C51.3758 4.5097 53.5442 5.62408 55.0052 7.85282C56.4779 10.07 57.2141 13.1635 57.2141 17.1335C57.2141 21.115 56.4779 24.2318 55.0052 26.4837C53.5442 28.7241 51.3758 29.8443 48.5 29.8443C45.6011 29.8443 43.4212 28.7241 41.9602 26.4837C40.5107 24.2318 39.786 21.115 39.786 17.1335C39.786 13.1635 40.5107 10.07 41.9602 7.85282C43.4212 5.62408 45.6011 4.5097 48.5 4.5097ZM48.5 8.49707C47.271 8.49707 46.3723 9.15873 45.8041 10.482C45.2359 11.7938 44.9518 14.0109 44.9518 17.1335C44.9518 18.155 44.9692 19.0662 45.004 19.8671C45.0387 20.6565 45.0909 21.3588 45.1605 21.974L51.0395 9.66367C50.7611 9.22258 50.4133 8.92077 49.9959 8.75825C49.59 8.58413 49.0914 8.49707 48.5 8.49707ZM52.0135 17.1335C52.0135 15.7986 51.9846 14.6725 51.9266 13.7555L46.3781 25.2301C46.6331 25.4738 46.9347 25.6421 47.2825 25.735C47.642 25.8278 48.0478 25.8743 48.5 25.8743C49.3233 25.8743 49.99 25.5958 50.5003 25.0386C51.022 24.4814 51.4048 23.5643 51.6482 22.2875C51.8917 20.9989 52.0135 19.2809 52.0135 17.1335Z" fill="#A7A7A7"/>
<path d="M68.1146 29.8095L62.8966 28.1902L71.889 9.26321H61.2964V5.11914H77.4549V8.84532L68.1146 29.8095Z" fill="#A7A7A7"/>
<path d="M84.4419 0C87.6423 0 89.8861 0.481734 91.1732 1.4452C92.4719 2.40867 92.9995 4.06862 92.756 6.42505L92.2342 11.4049C92.1414 12.2871 92.2921 12.9778 92.6864 13.477C93.0807 13.9761 93.6488 14.3301 94.3909 14.5391C95.1447 14.7364 96.0144 14.8351 97 14.8351V19.2926C96.0259 19.2926 95.1621 19.3971 94.4083 19.6059C93.6547 19.8033 93.0807 20.1516 92.6864 20.6507C92.2921 21.1499 92.1414 21.8406 92.2342 22.7227L92.756 27.6678C93.0227 30.0475 92.5009 31.719 91.1905 32.6824C89.8918 33.646 87.6423 34.1277 84.4419 34.1277V30.297C85.5088 30.297 86.3378 30.146 86.9291 29.8443C87.5206 29.5541 87.7699 28.9679 87.6772 28.0857L87.1379 22.9492C86.9988 21.6374 87.1379 20.5868 87.5553 19.7976C87.9844 18.9965 88.6338 18.3871 89.5035 17.9693C90.373 17.5397 91.3935 17.238 92.5646 17.0638C91.3239 16.8781 90.2688 16.5763 89.3991 16.1584C88.5409 15.7405 87.9149 15.1369 87.5206 14.3476C87.1263 13.5466 86.9988 12.4903 87.1379 11.1785L87.6772 6.04199C87.7699 5.15977 87.5147 4.57357 86.9118 4.28338C86.3204 3.98157 85.4971 3.83066 84.4419 3.83066V0Z" fill="#A7A7A7"/>
<path d="M12.2746 42.162C13.2417 42.162 14.0209 42.4023 14.6122 42.8829C15.2037 43.3634 15.635 44.0425 15.9064 44.9201C16.1846 45.7976 16.3238 46.8388 16.3238 48.0438C16.3238 49.1861 16.1568 50.2064 15.8229 51.1048C15.4889 51.9963 15.0054 52.6998 14.3723 53.2151C13.7391 53.7237 12.9703 53.9778 12.0659 53.9778C10.9875 53.9778 10.1108 53.5913 9.43597 52.8181V57.906L6.13818 58.2508V42.5277H9.06028L9.20639 43.7708C9.65862 43.1928 10.1526 42.7819 10.6883 42.5381C11.224 42.2874 11.7528 42.162 12.2746 42.162ZM11.2519 44.5962C10.8692 44.5962 10.5318 44.7112 10.2396 44.941C9.94735 45.1707 9.67948 45.4842 9.43597 45.8812V50.5616C9.66557 50.9028 9.9056 51.1536 10.1561 51.3137C10.4135 51.4739 10.7161 51.554 11.064 51.554C11.6484 51.554 12.1041 51.2894 12.4312 50.76C12.7582 50.2237 12.9216 49.3323 12.9216 48.0856C12.9216 47.1662 12.8555 46.4558 12.7233 45.9543C12.5912 45.446 12.3999 45.0942 12.1493 44.8992C11.8989 44.6971 11.5997 44.5962 11.2519 44.5962Z" fill="#A7A7A7"/>
<path d="M27.9881 50.4258C27.9881 50.8436 28.0437 51.1466 28.1551 51.3346C28.2733 51.5227 28.4612 51.6655 28.7186 51.763L28.0403 53.9361C27.3862 53.8734 26.8332 53.7305 26.3809 53.5077C25.9356 53.2778 25.5843 52.9331 25.3269 52.4735C24.9025 52.9818 24.3598 53.3614 23.6989 53.6122C23.0379 53.8559 22.3631 53.9778 21.6743 53.9778C20.5332 53.9778 19.6218 53.654 18.94 53.0062C18.2651 52.3515 17.9277 51.5123 17.9277 50.4885C17.9277 49.2835 18.3974 48.3537 19.3366 47.699C20.2827 47.0444 21.6116 46.717 23.3231 46.717H24.8155V46.2991C24.8155 45.1639 24.085 44.5962 22.6239 44.5962C22.2692 44.5962 21.8134 44.6485 21.2568 44.7529C20.7002 44.8504 20.1436 44.9931 19.587 45.1812L18.8252 42.9874C19.5419 42.7157 20.2863 42.5102 21.0585 42.3709C21.8377 42.2317 22.5335 42.162 23.1457 42.162C24.7946 42.162 26.0121 42.4998 26.7983 43.1753C27.5915 43.844 27.9881 44.8121 27.9881 46.0797V50.4258ZM22.8117 51.6167C23.1666 51.6167 23.5389 51.5123 23.9285 51.3033C24.3181 51.0875 24.6137 50.7845 24.8155 50.3945V48.5975H24.0015C23.0831 48.5975 22.4083 48.7402 21.9769 49.0258C21.5456 49.3044 21.3299 49.7153 21.3299 50.2586C21.3299 50.6834 21.4585 51.0178 21.716 51.2615C21.9804 51.4984 22.3457 51.6167 22.8117 51.6167Z" fill="#A7A7A7"/>
<path d="M41.6354 42.5277L37.9411 53.6227H34.0589L30.3226 42.5277H33.8814L36.0417 51.0944L38.2958 42.5277H41.6354Z" fill="#A7A7A7"/>
<path d="M53.0285 50.4258C53.0285 50.8436 53.0841 51.1466 53.1955 51.3346C53.3137 51.5227 53.5016 51.6655 53.759 51.763L53.0807 53.9361C52.4266 53.8734 51.8736 53.7305 51.4214 53.5077C50.976 53.2778 50.6248 52.9331 50.3673 52.4735C49.9429 52.9818 49.4002 53.3614 48.7393 53.6122C48.0783 53.8559 47.4035 53.9778 46.7147 53.9778C45.5736 53.9778 44.6622 53.654 43.9804 53.0062C43.3055 52.3515 42.9681 51.5123 42.9681 50.4885C42.9681 49.2835 43.4378 48.3537 44.377 47.699C45.3232 47.0444 46.6521 46.717 48.3635 46.717H49.8559V46.2991C49.8559 45.1639 49.1254 44.5962 47.6644 44.5962C47.3096 44.5962 46.8538 44.6485 46.2972 44.7529C45.7406 44.8504 45.184 44.9931 44.6275 45.1812L43.8657 42.9874C44.5823 42.7157 45.3267 42.5102 46.0989 42.3709C46.8782 42.2317 47.5739 42.162 48.1861 42.162C49.835 42.162 51.0525 42.4998 51.8387 43.1753C52.6319 43.844 53.0285 44.8121 53.0285 46.0797V50.4258ZM47.8521 51.6167C48.207 51.6167 48.5793 51.5123 48.9689 51.3033C49.3585 51.0875 49.6541 50.7845 49.8559 50.3945V48.5975H49.0419C48.1235 48.5975 47.4487 48.7402 47.0173 49.0258C46.586 49.3044 46.3703 49.7153 46.3703 50.2586C46.3703 50.6834 46.4991 51.0178 46.7564 51.2615C47.0208 51.4984 47.3861 51.6167 47.8521 51.6167Z" fill="#A7A7A7"/>
<path d="M56.2189 53.6226V42.5277H59.0993L59.3289 43.8126C59.8229 43.2555 60.3446 42.8411 60.8943 42.5695C61.4439 42.2978 62.0701 42.162 62.7728 42.162C63.7189 42.162 64.4634 42.451 65.0061 43.0292C65.5487 43.6072 65.82 44.4221 65.82 45.4737V53.6226H62.5223V46.4245C62.5223 45.7419 62.4458 45.2683 62.2927 45.0036C62.1466 44.732 61.8683 44.5962 61.4577 44.5962C61.1099 44.5962 60.776 44.7076 60.4559 44.9306C60.1428 45.1534 59.8297 45.4633 59.5168 45.8603V53.6226H56.2189Z" fill="#A7A7A7"/>
<path d="M76.9314 42.162C77.7174 42.162 78.2985 42.4197 78.6742 42.9351C79.0568 43.4435 79.2481 44.2689 79.2481 45.411V53.6226H76.42V45.7872C76.42 45.3972 76.3817 45.1221 76.3052 44.9619C76.2356 44.8016 76.0894 44.7216 75.8668 44.7216C75.693 44.7216 75.512 44.7738 75.3241 44.8783C75.1433 44.9758 74.9415 45.1639 74.7189 45.4424V53.6226H72.4021V45.7872C72.4021 45.3972 72.3638 45.1221 72.2873 44.9619C72.2177 44.8016 72.0716 44.7216 71.8489 44.7216C71.6751 44.7216 71.4941 44.7738 71.3062 44.8783C71.1254 44.9758 70.9236 45.1639 70.701 45.4424V53.6226H67.8311V42.5277H70.2522L70.4714 43.6037C70.8193 43.1301 71.1707 42.7714 71.5254 42.5277C71.8803 42.2839 72.3012 42.162 72.7882 42.162C73.2056 42.162 73.5604 42.2699 73.8527 42.4859C74.1519 42.6948 74.3641 43.0256 74.4893 43.4783C74.8233 43.0883 75.192 42.7714 75.5955 42.5277C75.9991 42.2839 76.4443 42.162 76.9314 42.162Z" fill="#A7A7A7"/>
<path d="M91.1004 40.7516L91.8728 43.1753C91.4832 43.3286 91.0274 43.4401 90.5057 43.5097C89.9838 43.5793 89.3751 43.6141 88.6794 43.6141C89.3751 43.9137 89.9038 44.2862 90.2656 44.7321C90.6344 45.1707 90.8187 45.7488 90.8187 46.4663C90.8187 47.1836 90.6274 47.8244 90.2448 48.3886C89.862 48.9458 89.3195 49.3846 88.6168 49.7049C87.9141 50.0253 87.0826 50.1855 86.1225 50.1855C85.6633 50.1855 85.2354 50.1437 84.8389 50.0601C84.7205 50.1228 84.6302 50.2133 84.5676 50.3318C84.5049 50.4501 84.4736 50.5721 84.4736 50.6974C84.4736 50.8715 84.5431 51.0282 84.6824 51.1675C84.8285 51.3069 85.1659 51.3764 85.6946 51.3764H87.5105C88.3732 51.3764 89.1176 51.5157 89.7438 51.7944C90.3769 52.0729 90.8674 52.4526 91.2153 52.9331C91.5631 53.4137 91.7371 53.964 91.7371 54.5838C91.7371 55.7191 91.2397 56.614 90.2448 57.2687C89.2498 57.9234 87.7714 58.2508 85.8094 58.2508C84.3901 58.2508 83.2908 58.1045 82.5117 57.812C81.7393 57.5265 81.2002 57.1155 80.8941 56.5791C80.5949 56.0499 80.4453 55.4195 80.4453 54.6882H83.3673C83.3673 55.0086 83.43 55.2698 83.5552 55.4718C83.6874 55.6807 83.9344 55.834 84.2962 55.9315C84.6649 56.029 85.1972 56.0778 85.8929 56.0778C86.5956 56.0778 87.1313 56.022 87.5 55.9106C87.8688 55.7991 88.1192 55.6459 88.2515 55.4509C88.3906 55.2628 88.4602 55.0504 88.4602 54.8136C88.4602 54.4862 88.3314 54.2216 88.0741 54.0196C87.8166 53.8177 87.4097 53.7166 86.853 53.7166H85.0893C83.8926 53.7166 83.0229 53.4972 82.4803 53.0584C81.9376 52.6127 81.6663 52.0938 81.6663 51.5018C81.6663 51.0909 81.7741 50.7009 81.9898 50.3318C82.2124 49.9627 82.5221 49.6527 82.9187 49.4019C82.209 49.0258 81.701 48.5835 81.3949 48.0751C81.0888 47.5598 80.9358 46.9433 80.9358 46.226C80.9358 45.3902 81.148 44.6728 81.5724 44.0738C81.9968 43.4679 82.5811 43.0013 83.3256 42.6739C84.077 42.3466 84.9329 42.1829 85.8929 42.1829C86.7208 42.1968 87.441 42.1411 88.0532 42.0157C88.6654 41.8833 89.2151 41.7058 89.7021 41.4829C90.189 41.253 90.6552 41.0093 91.1004 40.7516ZM85.9764 44.3246C85.4546 44.3246 85.0406 44.4918 84.7345 44.8261C84.4283 45.1534 84.2753 45.6061 84.2753 46.1842C84.2753 46.7971 84.4319 47.2672 84.745 47.5945C85.058 47.9219 85.4686 48.0856 85.9764 48.0856C87.1034 48.0856 87.667 47.4378 87.667 46.1424C87.667 44.9306 87.1034 44.3246 85.9764 44.3246Z" fill="#A7A7A7"/>
</g>
<defs>
<clipPath id="clip0_2_5989">
<rect width="97" height="59" fill="white"/>
</clipPath>
</defs>
</g>

</svg>
